<svg version="1.1" xmlns="http://www.w3.org/2000/svg" style="display: block;" viewBox="0 0 2048 2048" width="2048" height="2048" preserveAspectRatio="none">
<path transform="translate(0,0)" fill="rgb(3,3,1)" d="M 0 0 L 2048 0 L 2048 2048 L 0 2048 L 0 0 z"/>
<path transform="translate(0,0)" fill="rgb(250,251,251)" d="M 574.007 117.358 C 605.628 116.931 638.183 117.334 669.867 117.307 L 669.269 542.916 C 669.212 603.456 669.786 664.471 669.147 724.809 C 668.426 792.947 649.744 860.391 599.03 908.492 C 540.623 963.889 473.321 971.149 397.651 969.976 C 441.622 994.051 488.784 1013.35 532.459 1037.75 C 569.501 1058.45 612.813 1084.85 646.099 1111.68 C 728.619 1178.2 803.071 1271.68 842.013 1370.74 C 878.315 1463.08 880.948 1575.67 859.614 1671.92 C 852.544 1703.83 839.01 1738.47 826.003 1768.18 C 864.148 1784.8 894.216 1792.5 937.525 1795.64 C 1008.25 1800.78 1096.3 1801.14 1163.75 1775.18 C 1179.31 1769.2 1210.53 1741.5 1224.24 1729.73 C 1215.37 1777.49 1202.84 1820.12 1167.87 1855.35 C 1033.3 1871.42 904.722 1876.33 777.313 1931.19 C 726.34 1951.83 677.107 1976.53 630.086 2005.05 C 610.815 2005.31 599.421 2003.64 581.377 1997.13 C 593.81 1971.55 611.201 1958.59 632.282 1938.88 C 676.153 1897.88 727.537 1854.75 757.685 1802.17 C 763.61 1791.84 768.521 1771.9 770.713 1760.46 C 753.991 1752.88 738.947 1744.4 722.742 1736.08 C 659.168 1703.47 605.176 1665.89 554.426 1615.27 C 416.487 1477.66 347.765 1287.16 332.399 1095.55 C 328.272 1044.08 330.278 996.182 330.598 944.796 C 307.722 932.99 293.291 924.383 274.642 905.943 C 208.744 840.782 215.921 765.072 215.11 681.429 C 246.382 681.064 277.657 680.97 308.93 681.146 C 308.832 740.117 303.702 806.604 348.994 852.036 C 395.789 898.974 486.416 898.459 533.02 851.539 C 578.19 806.063 573.965 738.731 574.075 679.716 L 574.101 555.878 L 574.007 117.358 z"/>
<path transform="translate(0,0)" fill="rgb(3,3,1)" d="M 463.447 1024.69 C 511.124 1046.34 575.318 1104.72 609.3 1143.85 C 688.167 1234.65 750.003 1360.85 768.72 1480.06 C 781.677 1562.59 779.645 1654.4 773.846 1737.32 C 745.809 1732.22 686.989 1678.19 666.221 1656.93 C 547.995 1536.85 476.319 1378.65 464.003 1210.59 C 458.943 1141.98 462.679 1090.81 463.447 1024.69 z"/>
<path transform="translate(0,0)" fill="rgb(250,251,251)" d="M 504.743 1115.29 C 511.462 1113.68 518.523 1115.84 523.196 1120.93 C 527.869 1126.01 529.42 1133.23 527.25 1139.79 C 525.079 1146.35 519.527 1151.22 512.742 1152.51 C 502.579 1154.45 492.726 1147.92 490.553 1137.81 C 488.379 1127.69 494.68 1117.69 504.743 1115.29 z"/>
<path transform="translate(0,0)" fill="rgb(3,3,1)" d="M 370.21 976.398 C 381.016 980.547 416.436 1000.09 427.521 1006.29 C 426.115 1056.06 421.686 1095.04 422.908 1147.56 C 423.766 1197.4 429.748 1247.02 440.759 1295.64 C 465.888 1411.71 508.256 1497.24 577.204 1593.34 L 576.875 1594.4 C 573.388 1593.56 555.132 1573.96 551.354 1569.96 C 443.271 1455.55 387.63 1290.84 372.755 1136.44 C 367.915 1086.2 369.157 1026.93 370.21 976.398 z"/>
<path transform="translate(0,0)" fill="rgb(3,3,1)" d="M 621.364 1129.9 C 625.902 1131.48 636.322 1139.18 640.37 1142.38 C 680.042 1173.68 715.441 1212.69 744.464 1253.85 C 830.009 1375.16 852.805 1487.35 828.837 1631.7 L 825.591 1646.25 C 823.719 1625.06 822.865 1604.07 820.749 1582.58 C 807.423 1447.24 771.989 1329.92 692.346 1218 C 678.88 1199.08 665.152 1182.26 650.043 1164.48 C 642.867 1156.04 628.351 1140.28 622.485 1131.6 L 621.364 1129.9 z"/>
<path transform="translate(0,0)" fill="rgb(3,3,1)" d="M 817.219 1785.49 C 827.275 1788.35 845.672 1797.35 858.102 1801.57 C 904.147 1817.22 945.841 1830.6 993.405 1841 C 976.513 1843.96 959.038 1848.27 942.108 1851.76 C 920.139 1856.28 897.516 1860.32 875.761 1865.55 C 826.563 1876.66 784.118 1887.32 736.81 1904.74 C 746.831 1890.82 757.695 1877.39 767.768 1863.43 C 785.964 1838.57 802.484 1812.54 817.219 1785.49 z"/>
<path transform="translate(0,0)" fill="rgb(250,251,251)" d="M 1277.59 359.472 C 1280.33 359.398 1283.06 359.345 1285.79 359.315 C 1332.73 358.813 1387.75 365.218 1422.95 399.442 C 1465.58 440.901 1456.93 504.586 1457.22 558.826 L 1457.62 736.157 C 1436.37 735.948 1415.12 736.05 1393.87 736.463 C 1392.58 723.881 1391.46 712.701 1390.97 700.053 C 1375.5 711.989 1356.58 724.072 1338.32 731.284 C 1268.35 758.929 1158.49 743.385 1126.42 666.756 C 1122.04 656.463 1119.04 645.639 1117.5 634.562 C 1113.07 601.508 1120.58 564.887 1141.33 538.357 C 1191.7 473.94 1326.84 472.522 1386.92 520.46 C 1386.54 506.451 1387.58 468.908 1382.08 457.72 C 1356.41 405.519 1259.11 417.764 1212.1 426.709 C 1199.76 429.056 1183.67 435.833 1172.84 440.071 C 1168.81 424.161 1159.8 397.988 1154.56 381.67 C 1201.04 366.862 1228.9 361.069 1277.59 359.472 z"/>
<path transform="translate(0,0)" fill="rgb(3,3,1)" d="M 1280.94 541.49 C 1281.79 541.466 1282.64 541.447 1283.5 541.433 C 1320.63 540.828 1359.77 546.769 1387.4 573.567 C 1387.75 596.677 1388.14 623.44 1387.15 646.392 C 1385.92 648.001 1384.62 649.566 1383.28 651.085 C 1361.16 676.54 1330.74 684.66 1298.09 686.868 C 1241.93 688.674 1180.93 666.687 1190.69 599.708 C 1197.69 551.676 1240.45 543.372 1280.94 541.49 z"/>
<path transform="translate(0,0)" fill="rgb(250,251,251)" d="M 896.308 358.426 C 989.572 350.901 1067.37 404.99 1091.41 495.392 C 1098.61 522.496 1098.95 548.797 1098.55 576.523 C 1068.51 577.605 1036.51 576.552 1006.29 576.873 C 934.983 577.628 862.759 575.972 791.557 577.151 C 803.496 653.044 866.688 690.435 940.853 680.236 C 975.869 675.42 999.501 659.865 1020.56 631.602 L 1022.06 629.783 C 1026.41 629.115 1075.47 655.007 1082.71 659.222 C 1077.95 667.24 1072.52 674.836 1066.47 681.928 C 1000.4 760.301 857.048 764.163 780.442 699.681 C 700.9 632.727 693.624 499.425 761.417 421.769 C 797.449 380.494 842.407 362.034 896.308 358.426 z"/>
<path transform="translate(0,0)" fill="rgb(3,3,1)" d="M 890.556 419.387 C 962.77 412.923 1013.29 449.709 1023.1 522.744 C 991.207 523.403 958.195 522.879 926.25 522.71 C 881.013 523.073 835.773 523.108 790.535 522.815 C 801.153 463.329 830.065 429.297 890.556 419.387 z"/>
<path transform="translate(0,0)" fill="rgb(250,251,251)" d="M 900.982 898.11 L 988.602 897.623 L 988.358 1406.69 C 1008.39 1407.59 1031.12 1407.04 1051.33 1407.02 L 1155.18 1406.76 L 1155.38 1489.76 C 1153.41 1490.94 925.699 1490.37 900.857 1490.32 C 902.122 1413.97 900.606 1335.07 900.583 1258.44 L 900.982 898.11 z"/>
<path transform="translate(0,0)" fill="rgb(250,251,251)" d="M 1495.91 1111.47 L 1496.94 1111.69 C 1498.91 1114.25 1498.2 1173.26 1498.21 1181.16 L 1498.19 1490.55 C 1476.03 1490.14 1452.31 1490.6 1430.04 1490.68 L 1429.68 1448.27 C 1419.77 1455.89 1410.48 1464.48 1400.32 1471.8 C 1373.96 1490.78 1345.23 1497.15 1313.11 1497.05 C 1278.15 1496.93 1244.44 1486.57 1219.4 1461.44 C 1204.89 1446.79 1194.46 1428.6 1189.15 1408.68 C 1180.67 1377.76 1182.83 1340.42 1182.95 1307.87 L 1183.19 1225.06 C 1183.42 1187.37 1183.33 1149.69 1182.95 1112 C 1206.4 1111.76 1229.86 1111.7 1253.32 1111.85 C 1253.26 1112.72 1253.21 1113.6 1253.17 1114.47 C 1251.41 1157.69 1253.07 1210.22 1253.01 1254.08 L 1252.92 1317.08 C 1252.91 1334.57 1252.27 1354.23 1255.52 1371.26 C 1263.27 1411.82 1294.98 1432.79 1334.89 1432.41 C 1361.19 1432.16 1382.96 1428.62 1402.02 1409.57 C 1413.16 1398.55 1420.9 1384.58 1424.33 1369.3 C 1428.37 1351.4 1427.03 1302.48 1427.07 1281.19 L 1426.96 1111.97 L 1495.91 1111.47 z"/>
<path transform="translate(0,0)" fill="rgb(250,251,251)" d="M 1670.87 357.357 L 1676.66 357.012 C 1716.14 354.839 1755.1 363.11 1784.99 390.487 C 1830.17 431.875 1824.42 489.475 1824.37 544.791 L 1824.43 663.84 C 1824.4 686.225 1823.56 714.321 1824.76 736.034 L 1753.41 736.022 C 1754.4 664.192 1753.45 592.122 1753.76 520.273 C 1753.8 511.211 1753.57 501.526 1752.74 492.523 C 1752.05 484.533 1750.34 476.665 1747.65 469.113 C 1741.11 450.966 1728.26 434.562 1710.4 426.869 C 1686.1 416.397 1651.49 416.244 1626.88 425.456 C 1618.39 429.085 1610.7 434.338 1604.23 440.918 C 1584.88 460.276 1577.86 483.213 1577.93 510.049 C 1577.99 531.057 1577.84 552.163 1577.84 573.18 L 1577.99 736.019 C 1554.9 736.192 1531.81 736.244 1508.72 736.176 C 1507.7 703.974 1508.7 669.795 1508.35 637.365 C 1507.36 546.33 1509.56 454.199 1508.01 363.263 L 1581.29 363.337 C 1581.47 377.641 1581.66 391.345 1581.2 405.638 C 1606.53 375.295 1632.38 361.903 1670.87 357.357 z"/>
<path transform="translate(0,0)" fill="rgb(250,251,251)" d="M 1650.55 1111.49 L 1820.26 1111.76 C 1817.72 1120.82 1796.5 1154.99 1790.54 1165.76 C 1755.91 1228.34 1717.27 1289.43 1682.15 1351.75 C 1668.61 1375.79 1649.94 1403.28 1637.86 1427.23 C 1698.27 1426.36 1758.98 1427.72 1819.52 1426.78 L 1818.9 1490.16 C 1783.58 1489.71 1747.17 1490.21 1711.75 1490.25 L 1524.2 1490.2 C 1536.17 1464.25 1560.11 1424.94 1575.06 1399.6 L 1660.51 1255.42 C 1675.79 1229.67 1693.72 1201.43 1707.51 1175.15 L 1541.4 1175.12 C 1540.95 1154.04 1541.5 1132.97 1540.95 1111.61 C 1576.7 1112.37 1614.69 1111.72 1650.55 1111.49 z"/>
<path transform="translate(0,0)" fill="rgb(250,251,251)" d="M 1463.55 821.756 L 1486.12 821.698 C 1486.85 885.41 1485.64 949.355 1486.29 1013.33 L 1464.89 1012.92 L 1464.08 995.295 C 1440.61 1017.08 1413.87 1022.6 1384.98 1007.42 C 1331.75 974.043 1348.9 888.191 1411.78 880.274 C 1431.71 877.766 1447.42 883.983 1463 896.173 C 1465.15 882.671 1463.73 837.375 1463.55 821.756 z"/>
<path transform="translate(0,0)" fill="rgb(3,3,1)" d="M 1414.87 900.385 C 1426.52 899.627 1436.14 899.303 1446.75 905.441 C 1453.88 909.649 1461.62 919.795 1462.54 928.255 C 1466.33 962.962 1466.27 987.172 1427.2 995.537 C 1418.09 995.806 1408.26 996.023 1400.43 990.906 C 1363.64 966.899 1371.94 911.221 1414.87 900.385 z"/>
<path transform="translate(0,0)" fill="rgb(250,251,251)" d="M 1564.9 880.418 C 1565.53 880.379 1566.15 880.345 1566.78 880.315 C 1615.28 877.935 1638.13 905.417 1639.5 951.923 C 1603.43 952.085 1566.85 951.186 1530.85 952.072 C 1533.95 979.148 1547.15 995.629 1576.47 996.669 C 1590.34 997.162 1599.32 993.376 1609.13 983.777 L 1613.22 978.717 C 1620.16 981.879 1627.17 986.186 1633.8 990.055 C 1630.22 993.665 1626.59 997.563 1622.72 1000.83 C 1600.03 1020.03 1560.35 1020.17 1535.82 1004.21 C 1521.49 994.901 1511.55 980.167 1508.29 963.389 C 1500.06 922.407 1524.34 888.339 1564.9 880.418 z"/>
<path transform="translate(0,0)" fill="rgb(3,3,1)" d="M 1566.75 898.454 C 1594.55 897.036 1610.29 906.281 1615.46 934.504 C 1604.41 934.698 1592.61 934.455 1581.5 934.411 L 1531.41 934.444 C 1537.22 913.609 1545.22 903.592 1566.75 898.454 z"/>
</svg>